<svg data-v-539d07d6="" width="28" height="28" viewBox="0 0 29 28" fill="none" xmlns="http://www.w3.org/2000/svg" class="ui-icon ">
<g id="Icon">
<g id="Icon_2">
<path d="M14.5001 7.54553C14.1116 7.54553 13.7296 7.562 13.351 7.59492L13.3444 12.9357H15.6493V7.59492C15.2706 7.54553 14.8887 7.54553 14.5001 7.54553Z" fill="#7B4BF7"></path>
<path d="M19.0543 19.1165C20.2621 17.9087 20.9407 16.2705 20.9407 14.5623V10.7065C20.1054 10.4275 19.2516 10.2075 18.3855 10.048V14.5393C18.3855 17.7694 17.0158 19.4586 14.5001 19.4586C11.9845 19.4586 10.618 17.7694 10.618 14.5393V10.048C9.75095 10.2079 8.89607 10.4279 8.05957 10.7065V14.5623C8.05957 16.2705 8.73813 17.9087 9.94597 19.1165C11.1538 20.3243 12.792 21.0029 14.5001 21.0029C16.2083 21.0029 17.8465 20.3243 19.0543 19.1165Z" fill="#7B4BF7"></path>
<path d="M14.5 2C7.87258 2 2.5 7.37258 2.5 14C2.5 20.6274 7.87258 26 14.5 26C21.1274 26 26.5 20.6274 26.5 14C26.5 7.37258 21.1274 2 14.5 2ZM4 14C4 8.20101 8.70101 3.5 14.5 3.5C20.299 3.5 25 8.20101 25 14C25 19.799 20.299 24.5 14.5 24.5C8.70101 24.5 4 19.799 4 14Z" fill="#7B4BF7"></path>
</g>
</g>
</svg>