<svg data-v-5e0afdf2="" width="36" height="36" viewBox="0 0 37 36" fill="none" xmlns="http://www.w3.org/2000/svg" class="ui-icon ">
<g clip-path="url(#clip0_4153_2406)">
<g clip-path="url(#clip1_4153_2406)">
<path d="M15.8723 7.80653C20.403 7.80653 24.9298 7.81426 29.4604 7.79108C29.9587 7.78722 30.1557 7.94944 30.2677 8.40908C31.4535 13.3916 30.8625 18.1038 28.1279 22.48C26.7645 24.6623 25.0882 26.5665 22.9136 27.9917C21.7433 28.7603 20.488 29.162 19.055 29.1543C13.4583 29.1157 7.86548 29.1389 2.26879 29.1389C1.31863 29.1389 0.998047 28.8221 0.998047 27.8836C0.998047 21.6032 0.998047 15.3229 0.998047 9.04252C0.998047 8.11939 1.31091 7.80653 2.22631 7.80653C6.77627 7.80653 11.3224 7.80653 15.8723 7.80653Z" fill="#3C4855"></path>
<path d="M29.9973 24.9755C31.2372 24.3498 31.9826 23.2722 32.6277 22.1289C34.3735 19.0235 35.3005 15.694 35.2618 12.071C35.652 12.2062 35.8605 12.523 36.0614 12.8204C36.9381 14.1181 37.0849 15.5936 36.9304 17.0884C36.6407 19.8848 35.5824 22.3683 33.7246 24.5004C32.562 25.833 31.1715 26.8218 29.4643 27.3277C29.2905 27.3779 29.1167 27.4359 28.9776 27.5479C32.4075 27.2041 34.6207 25.1995 36.1348 22.152C36.7257 23.3494 36.6407 24.4541 35.9918 25.5085C34.9297 27.2273 33.2572 28.1002 31.4071 28.6757C30.2947 29.0233 29.1476 29.1585 27.9811 29.1508C25.8877 29.1315 23.7942 29.1469 21.7085 29.1469C21.6467 29.0233 21.7549 29.0272 21.8051 29.0079C25.3624 27.49 27.8189 24.8171 29.5956 21.4684C31.1058 18.6179 31.8977 15.5743 31.8281 12.3298C31.7972 10.9587 31.6157 9.6068 31.1792 8.29743C31.0054 7.776 31.0402 7.7451 31.5925 7.85711C32.7822 8.09659 33.4581 8.89225 33.8714 9.95829C34.4585 11.4762 34.416 13.056 34.2151 14.628C33.8405 17.5557 32.983 20.3367 31.4844 22.9014C31.0518 23.6314 30.5574 24.3266 29.9973 24.9755Z" fill="url(#paint0_linear_4153_2406)"></path>
<path d="M23.9021 20.7071C22.4073 20.7071 21.5962 19.5638 21.5962 18.1385C21.5962 16.7403 22.6082 15.8442 23.9677 15.8442C25.3544 15.8442 26.3122 16.636 26.3122 18.0729C26.3122 19.529 25.3968 20.7071 23.9021 20.7071ZM23.9562 16.4931C22.9944 16.4931 22.6815 17.3699 22.6815 18.1772C22.6815 18.9805 22.9751 20.0582 23.9677 20.0582C24.9295 20.0582 25.2308 18.9342 25.2308 18.1694C25.2269 17.3892 24.8909 16.4931 23.9562 16.4931Z" fill="url(#paint1_linear_4153_2406)"></path>
<path d="M20.9206 16.3579C20.9128 16.1416 20.7352 15.9678 20.5189 15.9678H20.0592C19.9047 15.9678 19.7657 16.0527 19.7 16.1918L18.661 18.2968L17.5911 16.1841C17.5216 16.0527 17.3826 15.9716 17.2358 15.9716H16.7723C16.5521 15.9716 16.3745 16.1454 16.3706 16.3617L16.2624 20.1701C16.2547 20.398 16.4401 20.5834 16.6641 20.5834H16.6796C16.8997 20.5834 17.0774 20.4096 17.0813 20.1894L17.1315 18.0689C17.1392 17.8411 17.1431 17.4278 17.1392 17.3119H17.1508C17.2281 17.5205 17.4057 17.8604 17.5177 18.0844L18.1744 19.2818C18.3327 19.5753 18.7537 19.5753 18.9159 19.2856L19.5957 17.9724C19.7077 17.7561 19.8816 17.3853 19.9627 17.1999H19.9743C19.9743 17.4162 19.9858 17.8024 19.9936 18.0767L20.0554 20.1933C20.0631 20.4096 20.2408 20.5834 20.4571 20.5834H20.654C20.8819 20.5834 21.0635 20.3941 21.0557 20.1663L20.9206 16.3579Z" fill="url(#paint2_linear_4153_2406)"></path>
<path d="M15.0338 15.9638H14.7827C14.5626 15.9638 14.381 16.1415 14.381 16.3655V18.7448C14.381 19.44 14.0566 19.8185 13.4309 19.8494C12.809 19.8185 12.4807 19.44 12.4807 18.7448V16.3617C12.4807 16.1415 12.303 15.96 12.079 15.96H11.828C11.6078 15.96 11.4263 16.1376 11.4263 16.3617V18.7409C11.4263 18.992 11.4533 19.243 11.5267 19.4825C11.5885 19.6872 11.6812 19.8842 11.8125 20.0542C11.9361 20.2125 12.0906 20.3438 12.2644 20.4443C12.4498 20.5486 12.6507 20.6258 12.8592 20.6567C13.1682 20.6992 13.3305 20.6953 13.5081 20.6915C13.848 20.6876 14.0759 20.6644 14.3965 20.5408C14.4158 20.5331 14.4351 20.5254 14.4544 20.5177C14.6398 20.4365 14.8098 20.3207 14.945 20.1739C15.0879 20.0194 15.196 19.8379 15.2733 19.6409C15.3582 19.413 15.4046 19.1697 15.4162 18.9263C15.42 18.8645 15.42 18.8027 15.42 18.7409V16.3617C15.4316 16.1415 15.254 15.9638 15.0338 15.9638Z" fill="url(#paint3_linear_4153_2406)"></path>
<path d="M7.70689 20.8384C7.28975 20.6878 6.98462 20.3865 6.77604 19.9616C6.5134 19.4286 6.31641 18.687 6.32027 18.0845C6.32414 17.5167 6.3589 17.2116 6.53271 16.9219C6.25847 17.1111 6.04604 17.4008 5.97265 17.7407C5.76794 18.6677 6.21213 20.2359 7.08504 20.7766C7.10049 20.7882 7.13139 20.8036 7.10821 20.8345C6.55588 20.7264 6.02286 19.9925 5.76408 18.9767C5.71001 18.9883 5.69069 19.023 5.66752 19.0578C5.4744 19.3707 5.5053 19.699 5.65593 20.008C5.98424 20.6723 6.50181 21.0238 7.17388 21.0972C7.35155 21.1165 7.53695 21.1204 7.71076 21.0431C7.76483 21.0199 7.83049 20.9929 7.83435 20.9272C7.83822 20.8307 7.74938 20.8538 7.70689 20.8384Z" fill="url(#paint4_linear_4153_2406)"></path>
<path d="M9.32512 16.2538C9.54142 16.246 9.53756 16.4469 9.49507 17.5902V17.7485C8.95047 17.7485 8.00803 17.7447 7.49818 17.7447C7.49818 16.7752 7.66041 16.3426 7.73766 16.0761C7.4866 16.1147 7.10808 16.2306 6.8995 16.667C6.64072 17.2116 6.58278 18.0305 6.68321 18.691C6.77591 19.3051 7.10035 20.4098 7.86125 20.6647C7.91147 20.6801 7.95782 20.626 7.93078 20.5797C7.79173 20.3402 7.52522 19.7261 7.49046 18.4592C7.92305 18.4669 9.08565 18.4863 9.49121 18.4824V18.5905V20.2282C9.49121 20.4136 9.64184 20.5604 9.82338 20.5604H10.2096C10.395 20.5604 10.5418 20.4098 10.5418 20.2282V16.8833C10.592 15.937 9.64571 15.7014 9.32512 16.2538Z" fill="url(#paint5_linear_4153_2406)"></path>
</g>
</g>
<defs>
<linearGradient id="paint0_linear_4153_2406" x1="20.7755" y1="21.9778" x2="37.4445" y2="16.0598" gradientUnits="userSpaceOnUse">
<stop offset="0.2783" stop-color="#9E8B3A"></stop>
<stop offset="0.5912" stop-color="#F9ECA9"></stop>
<stop offset="0.8284" stop-color="#B7A553"></stop>
</linearGradient>
<linearGradient id="paint1_linear_4153_2406" x1="20.2671" y1="14.763" x2="26.6691" y2="20.7779" gradientUnits="userSpaceOnUse">
<stop offset="0.2783" stop-color="#9E8B3A"></stop>
<stop offset="0.5912" stop-color="#F9ECA9"></stop>
<stop offset="0.8284" stop-color="#B7A553"></stop>
</linearGradient>
<linearGradient id="paint2_linear_4153_2406" x1="14.0196" y1="14.9106" x2="21.702" y2="20.5681" gradientUnits="userSpaceOnUse">
<stop offset="0.2783" stop-color="#9E8B3A"></stop>
<stop offset="0.5912" stop-color="#F9ECA9"></stop>
<stop offset="0.8284" stop-color="#B7A553"></stop>
</linearGradient>
<linearGradient id="paint3_linear_4153_2406" x1="7.93427" y1="13.164" x2="17.0409" y2="21.1174" gradientUnits="userSpaceOnUse">
<stop offset="0.2783" stop-color="#9E8B3A"></stop>
<stop offset="0.5912" stop-color="#F9ECA9"></stop>
<stop offset="0.8284" stop-color="#B7A553"></stop>
</linearGradient>
<linearGradient id="paint4_linear_4153_2406" x1="4.64415" y1="17.4089" x2="7.74598" y2="19.9438" gradientUnits="userSpaceOnUse">
<stop offset="0.2783" stop-color="#9E8B3A"></stop>
<stop offset="0.5912" stop-color="#F9ECA9"></stop>
<stop offset="0.8284" stop-color="#B7A553"></stop>
</linearGradient>
<linearGradient id="paint5_linear_4153_2406" x1="5.91261" y1="15.8567" x2="9.01444" y2="18.3915" gradientUnits="userSpaceOnUse">
<stop offset="0.2783" stop-color="#9E8B3A"></stop>
<stop offset="0.5912" stop-color="#F9ECA9"></stop>
<stop offset="0.8284" stop-color="#B7A553"></stop>
</linearGradient>
<clipPath id="clip0_4153_2406">
<rect width="36" height="21" fill="white" transform="translate(0.498535 8.00146)"></rect>
</clipPath>
<clipPath id="clip1_4153_2406">
<rect width="35.998" height="21.3594" fill="white" transform="translate(0.998047 7.7876)"></rect>
</clipPath>
</defs>
</svg>