<svg width="85" height="40" viewBox="0 0 85 40" fill="none" xmlns="http://www.w3.org/2000/svg">
<rect x="4.20001" y="18" width="16" height="10" rx="1" fill="#7000FF"/>
<rect x="4.20001" y="18" width="16" height="10" rx="1" stroke="#7000FF" stroke-width="2"/>
<rect x="5.20001" y="19" width="14" height="8" rx="1" fill="#F0F0FF"/>
<mask id="path-3-inside-1_2_146" fill="white">
<path d="M5.21002 13C5.21002 11.8954 6.10545 11 7.21002 11H17.19C18.2946 11 19.19 11.8954 19.19 13H5.21002Z"/>
</mask>
<path d="M5.21002 13C5.21002 10.7909 7.00088 9 9.21002 9H15.19C17.3992 9 19.19 10.7909 19.19 13C19.19 13 18.2946 13 17.19 13H7.21002C6.10545 13 5.21002 13 5.21002 13ZM19.19 13H5.21002H19.19ZM5.21002 13V11V13ZM19.19 11V13V11Z" fill="#7000FF" mask="url(#path-3-inside-1_2_146)"/>
<mask id="path-5-inside-2_2_146" fill="white">
<path d="M4.22 16C4.22 14.8954 5.11543 14 6.22 14H18.19C19.2946 14 20.19 14.8954 20.19 16H4.22Z"/>
</mask>
<path d="M4.22 16C4.22 14.8954 5.11543 14 6.22 14H18.19C19.2946 14 20.19 14.8954 20.19 16H4.22Z" fill="#7000FF"/>
<path d="M4.22 16C4.22 13.7909 6.01086 12 8.22 12H16.19C18.3991 12 20.19 13.7909 20.19 16C20.19 16 19.2946 16 18.19 16H6.22C5.11543 16 4.22 16 4.22 16ZM20.19 16H4.22H20.19ZM4.22 16V14V16ZM20.19 14V16V14Z" fill="#7000FF" mask="url(#path-5-inside-2_2_146)"/>
<path d="M33.5358 25V14.8182H35.072V19.6804H35.1963L39.4669 14.8182H41.4009L37.2943 19.402L41.4158 25H39.5663L36.2751 20.451L35.072 21.8331V25H33.5358ZM45.0197 25.169C44.5358 25.169 44.0983 25.0795 43.7072 24.9006C43.3161 24.7183 43.0062 24.4548 42.7775 24.1101C42.5521 23.7654 42.4394 23.3428 42.4394 22.8423C42.4394 22.4115 42.5223 22.0568 42.688 21.7784C42.8537 21.5 43.0774 21.2796 43.3591 21.1172C43.6409 20.9548 43.9557 20.8321 44.3037 20.7493C44.6518 20.6664 45.0064 20.6035 45.3677 20.5604C45.8251 20.5073 46.1963 20.4643 46.4813 20.4311C46.7663 20.3946 46.9735 20.3366 47.1028 20.2571C47.232 20.1776 47.2966 20.0483 47.2966 19.8693V19.8345C47.2966 19.4003 47.174 19.0639 46.9287 18.8253C46.6868 18.5866 46.3255 18.4673 45.8449 18.4673C45.3445 18.4673 44.9501 18.5784 44.6617 18.8004C44.3767 19.0192 44.1795 19.2628 44.0701 19.5312L42.6731 19.2131C42.8388 18.7491 43.0807 18.3745 43.3989 18.0895C43.7204 17.8011 44.09 17.5923 44.5076 17.4631C44.9252 17.3305 45.3644 17.2642 45.8251 17.2642C46.13 17.2642 46.4531 17.3007 46.7945 17.3736C47.1392 17.4432 47.4607 17.5724 47.759 17.7614C48.0606 17.9503 48.3075 18.2204 48.4998 18.5717C48.692 18.9197 48.7881 19.3722 48.7881 19.929V25H47.3364V23.956H47.2768C47.1806 24.1482 47.0365 24.3371 46.8442 24.5227C46.652 24.7083 46.4051 24.8625 46.1035 24.9851C45.8019 25.1077 45.4406 25.169 45.0197 25.169ZM45.3428 23.9759C45.7538 23.9759 46.1051 23.8946 46.3968 23.7322C46.6918 23.5698 46.9155 23.3577 47.0679 23.0959C47.2237 22.8307 47.3016 22.5473 47.3016 22.2457V21.2614C47.2486 21.3144 47.1458 21.3641 46.9934 21.4105C46.8442 21.4536 46.6735 21.4917 46.4813 21.5249C46.2891 21.5547 46.1018 21.5829 45.9195 21.6094C45.7372 21.6326 45.5848 21.6525 45.4621 21.669C45.1738 21.7055 44.9103 21.7668 44.6716 21.853C44.4363 21.9392 44.2474 22.0634 44.1049 22.2259C43.9657 22.3849 43.8961 22.5971 43.8961 22.8622C43.8961 23.2301 44.032 23.5085 44.3037 23.6974C44.5755 23.883 44.9219 23.9759 45.3428 23.9759ZM54.4167 17.3636V18.5568H50.2455V17.3636H54.4167ZM51.3641 15.5341H52.8506V22.7578C52.8506 23.0462 52.8937 23.2633 52.9799 23.4091C53.0661 23.5516 53.1771 23.6494 53.313 23.7024C53.4522 23.7521 53.603 23.777 53.7654 23.777C53.8847 23.777 53.9891 23.7687 54.0786 23.7521C54.1681 23.7356 54.2377 23.7223 54.2874 23.7124L54.5559 24.9403C54.4697 24.9735 54.3471 25.0066 54.188 25.0398C54.0289 25.0762 53.83 25.0961 53.5914 25.0994C53.2003 25.1061 52.8357 25.0365 52.4977 24.8906C52.1596 24.7448 51.8861 24.5194 51.6773 24.2145C51.4685 23.9096 51.3641 23.5268 51.3641 23.0661V15.5341ZM58.3673 25.169C57.8834 25.169 57.4459 25.0795 57.0548 24.9006C56.6637 24.7183 56.3538 24.4548 56.1252 24.1101C55.8998 23.7654 55.7871 23.3428 55.7871 22.8423C55.7871 22.4115 55.8699 22.0568 56.0357 21.7784C56.2014 21.5 56.4251 21.2796 56.7068 21.1172C56.9886 20.9548 57.3034 20.8321 57.6514 20.7493C57.9994 20.6664 58.3541 20.6035 58.7154 20.5604C59.1727 20.5073 59.544 20.4643 59.829 20.4311C60.114 20.3946 60.3212 20.3366 60.4504 20.2571C60.5797 20.1776 60.6443 20.0483 60.6443 19.8693V19.8345C60.6443 19.4003 60.5217 19.0639 60.2764 18.8253C60.0345 18.5866 59.6732 18.4673 59.1926 18.4673C58.6922 18.4673 58.2977 18.5784 58.0094 18.8004C57.7244 19.0192 57.5271 19.2628 57.4178 19.5312L56.0208 19.2131C56.1865 18.7491 56.4284 18.3745 56.7466 18.0895C57.0681 17.8011 57.4377 17.5923 57.8553 17.4631C58.2729 17.3305 58.712 17.2642 59.1727 17.2642C59.4777 17.2642 59.8008 17.3007 60.1422 17.3736C60.4869 17.4432 60.8084 17.5724 61.1067 17.7614C61.4083 17.9503 61.6552 18.2204 61.8475 18.5717C62.0397 18.9197 62.1358 19.3722 62.1358 19.929V25H60.6841V23.956H60.6244C60.5283 24.1482 60.3842 24.3371 60.1919 24.5227C59.9997 24.7083 59.7528 24.8625 59.4511 24.9851C59.1495 25.1077 58.7883 25.169 58.3673 25.169ZM58.6905 23.9759C59.1015 23.9759 59.4528 23.8946 59.7445 23.7322C60.0395 23.5698 60.2632 23.3577 60.4156 23.0959C60.5714 22.8307 60.6493 22.5473 60.6493 22.2457V21.2614C60.5963 21.3144 60.4935 21.3641 60.3411 21.4105C60.1919 21.4536 60.0212 21.4917 59.829 21.5249C59.6368 21.5547 59.4495 21.5829 59.2672 21.6094C59.0849 21.6326 58.9324 21.6525 58.8098 21.669C58.5215 21.7055 58.258 21.7668 58.0193 21.853C57.784 21.9392 57.5951 22.0634 57.4526 22.2259C57.3134 22.3849 57.2438 22.5971 57.2438 22.8622C57.2438 23.2301 57.3797 23.5085 57.6514 23.6974C57.9232 23.883 58.2696 23.9759 58.6905 23.9759ZM65.6863 14.8182V25H64.1997V14.8182H65.6863ZM70.9867 25.1541C70.2708 25.1541 69.646 24.9901 69.1124 24.6619C68.5788 24.3338 68.1645 23.8748 67.8695 23.2848C67.5745 22.6948 67.427 22.0054 67.427 21.2166C67.427 20.4245 67.5745 19.7318 67.8695 19.1385C68.1645 18.5452 68.5788 18.0845 69.1124 17.7564C69.646 17.4283 70.2708 17.2642 70.9867 17.2642C71.7026 17.2642 72.3274 17.4283 72.861 17.7564C73.3946 18.0845 73.8089 18.5452 74.1039 19.1385C74.3989 19.7318 74.5464 20.4245 74.5464 21.2166C74.5464 22.0054 74.3989 22.6948 74.1039 23.2848C73.8089 23.8748 73.3946 24.3338 72.861 24.6619C72.3274 24.9901 71.7026 25.1541 70.9867 25.1541ZM70.9917 23.9062C71.4557 23.9062 71.8401 23.7836 72.1451 23.5384C72.45 23.2931 72.6754 22.9666 72.8212 22.5589C72.9704 22.1513 73.0449 21.7022 73.0449 21.2116C73.0449 20.7244 72.9704 20.277 72.8212 19.8693C72.6754 19.4583 72.45 19.1286 72.1451 18.88C71.8401 18.6314 71.4557 18.5071 70.9917 18.5071C70.5243 18.5071 70.1365 18.6314 69.8283 18.88C69.5234 19.1286 69.2964 19.4583 69.1472 19.8693C69.0014 20.277 68.9285 20.7244 68.9285 21.2116C68.9285 21.7022 69.0014 22.1513 69.1472 22.5589C69.2964 22.9666 69.5234 23.2931 69.8283 23.5384C70.1365 23.7836 70.5243 23.9062 70.9917 23.9062ZM79.4913 28.0227C78.8848 28.0227 78.3628 27.9432 77.9253 27.7841C77.4911 27.625 77.1364 27.4145 76.8614 27.1527C76.5863 26.8909 76.3808 26.6042 76.2449 26.2926L77.5226 25.7656C77.6121 25.9115 77.7314 26.0656 77.8805 26.228C78.033 26.3937 78.2385 26.5346 78.497 26.6506C78.7588 26.7666 79.0953 26.8246 79.5062 26.8246C80.0697 26.8246 80.5354 26.687 80.9033 26.4119C81.2712 26.1402 81.4551 25.706 81.4551 25.1094V23.608H81.3606C81.2712 23.7704 81.1419 23.951 80.9729 24.1499C80.8071 24.3487 80.5784 24.5211 80.2868 24.6669C79.9951 24.8127 79.6156 24.8857 79.1483 24.8857C78.5451 24.8857 78.0015 24.7448 77.5176 24.4631C77.037 24.178 76.6559 23.7588 76.3741 23.2053C76.0957 22.6484 75.9565 21.964 75.9565 21.152C75.9565 20.34 76.0941 19.6439 76.3692 19.0639C76.6476 18.4839 77.0287 18.0398 77.5126 17.7315C77.9965 17.42 78.5451 17.2642 79.1582 17.2642C79.6322 17.2642 80.015 17.3438 80.3067 17.5028C80.5983 17.6586 80.8254 17.8409 80.9878 18.0497C81.1535 18.2585 81.2811 18.4425 81.3706 18.6016H81.48V17.3636H82.9366V25.169C82.9366 25.8253 82.7842 26.3639 82.4792 26.7848C82.1743 27.2057 81.7617 27.5173 81.2413 27.7195C80.7243 27.9216 80.1409 28.0227 79.4913 28.0227ZM79.4764 23.6527C79.904 23.6527 80.2652 23.5533 80.5602 23.3544C80.8585 23.1522 81.0839 22.8639 81.2364 22.4893C81.3921 22.1115 81.47 21.6591 81.47 21.1321C81.47 20.6184 81.3938 20.166 81.2413 19.7749C81.0889 19.3838 80.8651 19.0788 80.5702 18.8601C80.2752 18.638 79.9106 18.527 79.4764 18.527C79.029 18.527 78.6561 18.643 78.3578 18.875C78.0595 19.1037 77.8341 19.4152 77.6817 19.8097C77.5325 20.2041 77.4579 20.6449 77.4579 21.1321C77.4579 21.6326 77.5342 22.0717 77.6866 22.4496C77.8391 22.8274 78.0645 23.1224 78.3628 23.3345C78.6644 23.5466 79.0356 23.6527 79.4764 23.6527Z" fill="#7000FF"/>
</svg>
