<svg data-v-5e0afdf2="" width="36" height="36" viewBox="0 0 36 36" fill="none" xmlns="http://www.w3.org/2000/svg" class="ui-icon ">
<rect x="13.998" y="11.7554" width="8" height="12.5" fill="#FF5F00"></rect>
<path fill-rule="evenodd" clip-rule="evenodd" d="M17.998 11.7561C16.1691 13.2222 14.998 15.4751 14.998 18.0015C14.998 20.5278 16.1691 22.7807 17.998 24.2468C16.6285 25.3447 14.8899 26.0015 12.998 26.0015C8.57977 26.0015 4.99805 22.4197 4.99805 18.0015C4.99805 13.5832 8.57977 10.0015 12.998 10.0015C14.8899 10.0015 16.6285 10.6582 17.998 11.7561Z" fill="#EB001B"></path>
<path fill-rule="evenodd" clip-rule="evenodd" d="M17.998 11.7561C19.827 13.2222 20.998 15.4751 20.998 18.0015C20.998 20.5278 19.827 22.7807 17.998 24.2468C19.3676 25.3447 21.1062 26.0015 22.998 26.0015C27.4163 26.0015 30.998 22.4197 30.998 18.0015C30.998 13.5832 27.4163 10.0015 22.998 10.0015C21.1062 10.0015 19.3676 10.6582 17.998 11.7561Z" fill="#F79E1B"></path>
</svg>