<svg data-v-5e0afdf2="" width="36" height="36" viewBox="0 0 36 36" fill="none" xmlns="http://www.w3.org/2000/svg" class="ui-icon ">
<path d="M21.2707 19.4417C20.0207 19.4417 18.9582 19.0043 18.0832 18.1293C17.2083 17.2543 16.7708 16.1918 16.7708 14.9418C16.7708 13.6919 17.2083 12.6294 18.0832 11.7544C18.9582 10.8794 20.0207 10.4419 21.2707 10.4419C22.5207 10.4419 23.5831 10.8794 24.4581 11.7544C25.3331 12.6294 25.7706 13.6919 25.7706 14.9418C25.7706 16.1918 25.3331 17.2543 24.4581 18.1293C23.5831 19.0043 22.5207 19.4417 21.2707 19.4417ZM10.7709 23.9417C9.94591 23.9417 9.23992 23.6477 8.65294 23.0597C8.06495 22.4727 7.77095 21.7667 7.77095 20.9417V8.94196C7.77095 8.11698 8.06495 7.41099 8.65294 6.824C9.23992 6.23601 9.94591 5.94202 10.7709 5.94202H31.7705C32.5955 5.94202 33.3019 6.23601 33.8899 6.824C34.4769 7.41099 34.7704 8.11698 34.7704 8.94196V20.9417C34.7704 21.7667 34.4769 22.4727 33.8899 23.0597C33.3019 23.6477 32.5955 23.9417 31.7705 23.9417H10.7709ZM13.3618 21.7599H28.7705C28.7705 20.9349 29.2515 20.0297 29.8385 19.4417C30.4265 18.8548 31.6273 17.9418 32.4523 17.9418V11.7544C31.6273 11.7544 30.4265 11.0299 29.8385 10.4419C29.2515 9.85494 28.7705 8.94878 28.7705 8.12379L13.9072 8.01034C13.9072 8.83533 13.4043 9.85494 12.8163 10.4419C12.2293 11.0299 10.9141 11.9419 10.0891 11.9419V17.9418C10.9141 17.9418 11.6839 18.4457 12.2709 19.0327C12.8589 19.6207 13.3618 20.9349 13.3618 21.7599ZM4.77102 29.9415C3.94603 29.9415 3.24005 29.648 2.65306 29.0611C2.06507 28.4731 1.77108 27.7666 1.77108 26.9416V11.9419C1.77108 11.5169 1.75629 11.1604 2.04428 10.8724C2.33128 10.5854 2.57333 10.4419 2.99832 10.4419C3.42332 10.4419 3.80122 10.5854 4.08921 10.8724C4.37621 11.1604 4.34052 11.5169 4.34052 11.9419V27.3736H28.7705C29.1955 27.3736 29.5842 27.5535 29.7508 27.6563C30.0658 27.8508 30.2538 28.2967 30.2538 28.7217C30.2538 29.1467 29.9888 29.4357 29.8187 29.6065C29.6485 29.7773 29.1955 29.9415 28.7705 29.9415H4.77102Z" fill="#00AD3A"></path>
</svg>