<svg data-v-5e0afdf2="" width="36" height="36" viewBox="0 0 36 36" fill="none" xmlns="http://www.w3.org/2000/svg" class="ui-icon ">
<g clip-path="url(#clip0_4153_2398)">
<g clip-path="url(#clip1_4153_2398)">
<path fill-rule="evenodd" clip-rule="evenodd" d="M28.6396 15.6574C28.6396 19.4961 27.7624 22.357 26.0088 24.2212C24.2548 26.0849 21.5451 27.0168 17.8921 27.0168C14.4788 27.0168 11.8895 26.0849 10.124 24.2212C8.35766 22.3574 7.47559 19.5463 7.47559 15.7884V3.18012C7.47594 3.03818 7.53248 2.90216 7.63284 2.80179C7.73321 2.70142 7.86924 2.64488 8.01118 2.64453H14.2002C14.3421 2.64511 14.478 2.70173 14.5783 2.80204C14.6786 2.90236 14.7352 3.03825 14.7358 3.18012V16.0639C14.7358 17.5983 15.0197 18.7793 15.5976 19.6124C16.0302 20.186 16.6469 20.5931 17.3443 20.7655C18.0417 20.9378 18.7771 20.8649 19.427 20.5589C19.8578 20.3562 20.2367 20.0578 20.5348 19.6865C21.0999 18.9049 21.3811 17.7531 21.3794 16.2305V13.8179H28.6396V15.6574Z" fill="#1F3E79"></path>
<path fill-rule="evenodd" clip-rule="evenodd" d="M28.0785 12.4086H21.3799V3.20569C21.3802 3.05697 21.4395 2.91444 21.5446 2.80928C21.6498 2.70411 21.7923 2.64488 21.941 2.64453H22.9439C22.9451 4.15364 23.5455 5.60051 24.6133 6.66698C25.6812 7.73379 27.1289 8.33309 28.6384 8.33327H28.6401V12.4086H28.0785Z" fill="#1F3E79"></path>
<path fill-rule="evenodd" clip-rule="evenodd" d="M24.3706 2.64453H28.0792C28.2279 2.645 28.3703 2.70427 28.4755 2.8094C28.5806 2.91454 28.6399 3.057 28.6404 3.20569V6.91736C27.5082 6.91713 26.4226 6.46739 25.6219 5.66699C24.8213 4.8666 24.3712 3.78105 24.3706 2.64894V2.64453Z" fill="#EF7F1A"></path>
<path fill-rule="evenodd" clip-rule="evenodd" d="M8.69131 33.14C9.51079 33.14 9.9062 32.6842 9.9062 32.0146V30.4008H9.31991V31.9983C9.31991 32.1659 9.25336 32.3265 9.1349 32.445C9.01643 32.5635 8.85576 32.63 8.68822 32.63C8.52069 32.63 8.36002 32.5635 8.24155 32.445C8.12309 32.3265 8.05653 32.1659 8.05653 31.9983V30.4008H7.4751V32.0195C7.4751 32.6807 7.87051 33.1409 8.68999 33.1409L8.69131 33.14ZM13.4451 33.0915V32.5877H12.1455L13.4173 30.8597V30.3995H11.3948V30.9038H12.6666L11.3948 32.6269V33.0898L13.4451 33.0915ZM16.1847 33.14C16.4154 33.1453 16.6429 33.0862 16.8417 32.9693C17.0406 32.8524 17.203 32.6824 17.3106 32.4784L16.8169 32.2403C16.7568 32.357 16.666 32.4552 16.5543 32.5241C16.4426 32.5931 16.3142 32.6303 16.183 32.6318C16.0139 32.6232 15.8508 32.5664 15.713 32.468C15.5753 32.3695 15.4686 32.2336 15.4057 32.0764C15.3429 31.9192 15.3264 31.7473 15.3583 31.581C15.3902 31.4147 15.4691 31.2611 15.5857 31.1383C15.7422 30.9739 15.956 30.8756 16.183 30.8645C16.314 30.8668 16.442 30.9043 16.5535 30.9731C16.6651 31.0419 16.756 31.1395 16.8169 31.2555L17.3106 31.0131C17.2031 30.8093 17.0406 30.6397 16.8416 30.5236C16.6426 30.4075 16.415 30.3495 16.1847 30.3563C15.9515 30.3495 15.7204 30.4014 15.5124 30.5071C15.3045 30.6129 15.1264 30.7692 14.9946 30.9617C14.8628 31.1541 14.7814 31.3766 14.7579 31.6087C14.7344 31.8409 14.7695 32.0752 14.8601 32.2901C14.9694 32.5489 15.1544 32.7686 15.3908 32.9203C15.6272 33.0719 15.904 33.1486 16.1847 33.14ZM21.1924 33.0915L20.1552 30.4008H19.4366L18.395 33.0915H19.0492L19.2184 32.6357H20.3734L20.5387 33.0915H21.1924ZM20.2156 32.1315H19.3758L19.7959 30.9734L20.2156 32.1315ZM25.0619 33.7669L24.0745 32.0675C24.2509 32.025 24.4067 31.9215 24.5144 31.7754C24.6221 31.6293 24.6749 31.4499 24.6634 31.2688C24.6679 31.1505 24.6474 31.0326 24.6031 30.9229C24.5588 30.8132 24.4917 30.7141 24.4064 30.6321C24.321 30.5501 24.2192 30.4872 24.1078 30.4474C23.9963 30.4076 23.8777 30.3919 23.7597 30.4012H22.499V33.0924H23.0721V32.1359H23.4922L24.4033 33.7664L25.0615 33.7669H25.0619ZM23.6747 31.632H23.0734V30.906H23.6729C23.7241 30.9001 23.776 30.905 23.8251 30.9206C23.8742 30.9361 23.9195 30.9619 23.958 30.9961C23.9965 31.0304 24.0273 31.0725 24.0484 31.1195C24.0695 31.1665 24.0804 31.2175 24.0804 31.269C24.0804 31.3205 24.0695 31.3715 24.0484 31.4185C24.0273 31.4655 23.9965 31.5076 23.958 31.5419C23.9195 31.5761 23.8742 31.6019 23.8251 31.6174C23.776 31.633 23.7241 31.6379 23.6729 31.632H23.6747ZM27.2131 33.0924C28.0568 33.0924 28.6422 32.5599 28.6422 31.7488C28.6422 30.9377 28.0555 30.4012 27.2131 30.4012H26.1516V33.0924H27.2131ZM27.2131 32.5881H26.7247V30.906H27.2131C27.3259 30.8977 27.4392 30.9138 27.5453 30.9533C27.6513 30.9927 27.7477 31.0545 27.8277 31.1344C27.9078 31.2144 27.9697 31.3107 28.0092 31.4167C28.0487 31.5227 28.065 31.636 28.0568 31.7488C28.0618 31.8609 28.0432 31.9727 28.0024 32.0772C27.9616 32.1816 27.8993 32.2764 27.8197 32.3554C27.7401 32.4344 27.6449 32.4958 27.5401 32.5359C27.4353 32.5759 27.3233 32.5935 27.2113 32.5877L27.2131 32.5881ZM29.3383 30.3497V30.3567C29.3383 30.4557 29.3089 30.5525 29.2539 30.6349C29.1989 30.7172 29.1207 30.7814 29.0292 30.8193C28.9378 30.8572 28.8371 30.8672 28.74 30.8479C28.6428 30.8286 28.5536 30.781 28.4836 30.711C28.4135 30.641 28.3658 30.5518 28.3464 30.4547C28.327 30.3576 28.3369 30.2569 28.3747 30.1654C28.4126 30.0739 28.4767 29.9956 28.559 29.9406C28.6413 29.8855 28.738 29.856 28.8371 29.856H29.3378V30.3497H29.3383Z" fill="#1F3E79"></path>
</g>
</g>
<defs>
<clipPath id="clip0_4153_2398">
<rect width="22" height="31" fill="white" transform="translate(7.33252 2.50146)"></rect>
</clipPath>
<clipPath id="clip1_4153_2398">
<rect width="22.0408" height="30.8571" fill="white" transform="translate(7.47559 2.64453)"></rect>
</clipPath>
</defs>
</svg>