<svg data-v-5e0afdf2="" width="36" height="36" viewBox="0 0 36 36" fill="none" xmlns="http://www.w3.org/2000/svg" class="ui-icon ">
<g clip-path="url(#clip0_4153_2381)">
<rect y="0.00146484" width="36" height="36" rx="7.74694" fill="#A6FC6F"></rect>
<path d="M39.6299 -3.61324C41.6258 -1.61732 42.6238 -0.619354 42.9977 0.531421C43.3266 1.54367 43.3266 2.63406 42.9977 3.64631C42.6238 4.79709 41.6258 5.79505 39.6299 7.79098L23.3422 24.0787C21.3463 26.0746 20.3483 27.0726 19.1975 27.4465C18.1853 27.7754 17.0949 27.7754 16.0826 27.4465C14.9319 27.0726 13.9339 26.0746 11.938 24.0787L5.79957 17.9403C3.80364 15.9444 2.80568 14.9464 2.43177 13.7956C2.10287 12.7834 2.10287 11.693 2.43177 10.6807C2.80568 9.52996 3.80364 8.53199 5.79957 6.53607L22.0873 -9.75165C24.0832 -11.7476 25.0812 -12.7455 26.232 -13.1195C27.2442 -13.4484 28.3346 -13.4484 29.3468 -13.1195C30.4976 -12.7455 31.4956 -11.7476 33.4915 -9.75165L39.6299 -3.61324Z" fill="#7000FF"></path>
<path d="M29.8384 19.9419C31.8343 21.9379 32.8323 22.9358 33.2062 24.0866C33.5351 25.0988 33.5351 26.1892 33.2062 27.2015C32.8323 28.3523 31.8343 29.3502 29.8384 31.3462L13.5507 47.6339C11.5548 49.6298 10.5568 50.6278 9.40603 51.0017C8.39378 51.3306 7.30339 51.3306 6.29114 51.0017C5.14036 50.6278 4.1424 49.6298 2.14647 47.6339L-3.99194 41.4955C-5.98786 39.4995 -6.98583 38.5016 -7.35974 37.3508C-7.68864 36.3385 -7.68864 35.2482 -7.35974 34.2359C-6.98583 33.0851 -5.98786 32.0872 -3.99194 30.0912L12.2958 13.8035C14.2917 11.8076 15.2897 10.8096 16.4405 10.4357C17.4527 10.1068 18.5431 10.1068 19.5553 10.4357C20.7061 10.8096 21.7041 11.8076 23.7 13.8035L29.8384 19.9419Z" fill="#7000FF"></path>
<path d="M22.1898 9.61377C22.6342 9.71161 23.0642 9.79517 23.4862 9.9032C23.9346 10.0173 24.3789 10.1559 24.8232 10.2803C24.8864 10.2986 24.9109 10.3231 24.9109 10.3944C24.9089 11.7825 24.9231 13.1726 24.9048 14.5606C24.8844 16.0526 24.4136 17.4019 23.5065 18.5882C22.4956 19.911 21.1727 20.763 19.5544 21.1503C18.9164 21.3031 18.2662 21.3541 17.6119 21.3154C16.0567 21.2236 14.6789 20.6754 13.5008 19.6583C12.286 18.6126 11.5196 17.2959 11.2118 15.7183C11.1242 15.2699 11.0895 14.8154 11.0895 14.3588C11.0875 13.0441 11.0895 11.7315 11.0854 10.4168C11.0854 10.3292 11.114 10.2986 11.1935 10.2742C12.0414 10.0031 12.9056 9.78906 13.78 9.63008C13.7882 9.62804 13.7963 9.63008 13.8167 9.62804C13.8167 9.66269 13.8167 9.69734 13.8167 9.72995C13.8167 11.3789 13.8106 13.0299 13.8208 14.6788C13.8269 15.5104 13.939 16.3318 14.2223 17.1206C14.4465 17.7464 14.7788 18.3049 15.2741 18.7574C15.7388 19.1793 16.283 19.4463 16.8924 19.5767C17.7546 19.7622 18.6147 19.7479 19.4606 19.4809C20.4594 19.167 21.1524 18.5026 21.5967 17.567C21.8352 17.0676 21.9779 16.5377 22.0675 15.9935C22.1674 15.3881 22.1919 14.7767 22.1919 14.1652C22.1919 12.6936 22.1919 11.2199 22.1919 9.74829C22.1898 9.70957 22.1898 9.67288 22.1898 9.61377Z" fill="white"></path>
<path d="M19.2122 12.6711C18.399 12.6711 17.5939 12.6711 16.7847 12.6711C16.7847 10.7755 16.7847 8.88199 16.7847 6.9905C17.0374 6.91101 18.7312 6.90489 19.2122 6.98438C19.2122 8.87996 19.2122 10.7755 19.2122 12.6711Z" fill="white"></path>
<path fill-rule="evenodd" clip-rule="evenodd" d="M8.24268 26.7712C8.24268 28.2725 9.17092 28.8877 10.4762 28.8877H10.483C11.6834 28.8877 12.6811 28.199 12.6811 26.9182C12.6811 25.8443 11.957 24.9556 10.6558 24.9556C10.0583 24.9556 9.6432 25.1066 9.33152 25.4142V23.8477H8.24268V26.7712ZM9.37508 26.9209C9.37508 26.3207 9.84464 25.8933 10.4639 25.8933C11.1036 25.8933 11.565 26.3289 11.565 26.9209C11.565 27.513 11.0859 27.9322 10.4639 27.9322C9.84192 27.9322 9.37508 27.5212 9.37508 26.9209ZM17.5348 25.021V27.4709V27.475C17.5348 27.803 17.6314 27.8833 17.8465 27.8833H18.0193V28.7993H17.396C17.1892 28.8097 16.9848 28.7513 16.8148 28.633C16.6449 28.5148 16.519 28.3435 16.4568 28.146C16.1901 28.6156 15.6402 28.8878 15.0318 28.8878C13.8872 28.8878 13.1563 27.8996 13.1794 26.9061C13.1794 25.9261 13.8259 24.9448 15.0849 24.9448C15.8171 24.9448 16.2295 25.2674 16.4636 25.6185L16.4568 25.021H17.5348ZM14.2301 26.9129C14.2301 27.5131 14.697 27.9405 15.3122 27.9405C15.9519 27.9405 16.4133 27.509 16.4133 26.9129C16.4133 26.3167 15.9519 25.9016 15.3122 25.9016C14.697 25.9016 14.2301 26.3126 14.2301 26.9129ZM23.688 28.8049H24.7769V26.9511L26.4714 28.8049H27.7576L26.0018 26.8626L27.6229 25.0225H26.3448L24.7769 26.7932V23.8533H23.688V28.8049ZM19.8945 25.0221H18.8046H18.802V28.7994H19.8919V26.9405C19.8919 26.6609 19.9748 26.4305 20.1353 26.2518C20.2984 26.0732 20.5366 25.9826 20.855 25.9826C21.1424 25.9826 21.3754 26.0603 21.5514 26.2182C21.7275 26.3761 21.8155 26.6169 21.8155 26.9405V28.7994H22.9055V26.6324C22.9055 26.3502 22.864 26.1069 22.7838 25.9049C22.7035 25.703 22.5922 25.5321 22.4472 25.4001C22.3022 25.268 22.1339 25.1697 21.9398 25.1075C21.7456 25.0454 21.5385 25.0143 21.3158 25.0143C21.0414 25.0143 20.8188 25.0532 20.6453 25.1256C20.4718 25.1981 20.3346 25.2784 20.2337 25.3612C20.112 25.4596 20.0188 25.5735 19.9541 25.7004H19.8945V25.0221Z" fill="white"></path>
</g>
<defs>
<clipPath id="clip0_4153_2381">
<rect y="0.00146484" width="36" height="36" rx="7.74694" fill="white"></rect>
</clipPath>
</defs>
</svg>