<svg data-v-5e0afdf2="" width="36" height="36" viewBox="0 0 36 36" fill="none" xmlns="http://www.w3.org/2000/svg" class="ui-icon ">
<g clip-path="url(#clip0_4153_2382)">
<rect y="0.00146484" width="36" height="36" rx="7.71429" fill="#FF5733"></rect>
<rect x="17.9136" y="-1.10645" width="27.0745" height="27.0745" rx="4.16326" transform="rotate(45 17.9136 -1.10645)" fill="#7000FF"></rect>
<rect x="4.33838" y="4.46289" width="27.1505" height="27.1505" rx="4.16326" fill="#7000FF"></rect>
<path d="M22.0614 9.9834C22.5057 10.0812 22.9358 10.1648 23.3577 10.2728C23.8062 10.387 24.2505 10.5256 24.6948 10.6499C24.758 10.6683 24.7825 10.6927 24.7825 10.764C24.7804 12.1521 24.7947 13.5422 24.7764 14.9302C24.756 16.4222 24.2851 17.7715 23.3781 18.9578C22.3671 20.2806 21.0443 21.1326 19.426 21.5199C18.788 21.6728 18.1378 21.7237 17.4835 21.685C15.9283 21.5933 14.5505 21.045 13.3724 20.0279C12.1576 18.9823 11.3912 17.6656 11.0834 16.088C10.9958 15.6395 10.9611 15.185 10.9611 14.7284C10.9591 13.4138 10.9611 12.1011 10.957 10.7865C10.957 10.6988 10.9856 10.6683 11.0651 10.6438C11.913 10.3727 12.7772 10.1587 13.6516 9.9997C13.6597 9.99767 13.6679 9.9997 13.6883 9.99767C13.6883 10.0323 13.6883 10.067 13.6883 10.0996C13.6883 11.7485 13.6822 13.3995 13.6924 15.0484C13.6985 15.8801 13.8106 16.7015 14.0939 17.4903C14.3181 18.116 14.6503 18.6745 15.1456 19.127C15.6104 19.5489 16.1546 19.8159 16.764 19.9464C17.6262 20.1318 18.4863 20.1176 19.3322 19.8506C20.3309 19.5367 21.0239 18.8722 21.4683 17.9366C21.7068 17.4373 21.8494 16.9073 21.9391 16.3631C22.039 15.7578 22.0634 15.1463 22.0634 14.5348C22.0634 13.0632 22.0634 11.5895 22.0634 10.1179C22.0614 10.0792 22.0614 10.0425 22.0614 9.9834Z" fill="white"></path>
<path d="M19.0833 13.0407C18.2701 13.0407 17.4649 13.0407 16.6558 13.0407C16.6558 11.1452 16.6558 9.25162 16.6558 7.36013C16.9085 7.28064 18.6023 7.27452 19.0833 7.35401C19.0833 9.24958 19.0833 11.1452 19.0833 13.0407Z" fill="white"></path>
<g clip-path="url(#clip1_4153_2382)">
<path d="M18.7544 26.1271C18.7544 25.3725 18.1664 24.9941 16.9856 24.9986C16.1731 24.9986 15.2261 25.2081 15.2261 26.0392C15.2261 26.4784 15.5024 26.8253 15.9063 26.9447C16.3219 27.0663 16.7423 27.1272 17.1674 27.1587C17.4059 27.1767 17.8523 27.242 17.8523 27.4943C17.8476 27.7263 17.5736 27.8412 17.0281 27.8412C16.466 27.8412 16.2227 27.7218 16.2227 27.411V27.3051H15.1553V27.411C15.1553 28.1881 15.7764 28.5777 17.0281 28.5777C18.2868 28.5822 18.9198 28.2128 18.9198 27.483C18.9198 26.9289 18.5088 26.5933 17.9916 26.4942C17.4957 26.3951 16.9761 26.3861 16.5652 26.2847C16.3857 26.2397 16.2936 26.1451 16.2936 26.046C16.2936 25.8365 16.5132 25.7306 16.9643 25.7306C17.4083 25.7306 17.6893 25.7892 17.6893 26.1271H18.7544Z" fill="white"></path>
<path d="M8.41987 26.6951C8.41987 26.1523 8.09632 25.9 7.61691 25.9C7.13513 25.9 6.82339 26.1523 6.82339 26.6951V28.4971H5.78662V26.6636C5.78662 25.4675 6.83047 24.999 7.62163 24.999C8.40098 24.999 9.45664 25.4698 9.45664 26.6636V28.4971H8.41987V26.6951Z" fill="white"></path>
<path d="M12.0994 27.7146C11.5113 27.7146 11.0697 27.3295 11.0697 26.7821C11.0697 26.2415 11.5113 25.8631 12.0994 25.8631C12.711 25.8631 13.1479 26.2415 13.1479 26.7821C13.1479 27.3272 12.711 27.7146 12.0994 27.7146ZM14.2154 27.2889V25.0612H13.1881L13.1952 25.6041C12.9755 25.2842 12.5812 24.9937 11.8868 24.9937C10.6847 24.9937 10.0683 25.8834 10.0683 26.7754C10.0471 27.6763 10.7414 28.5773 11.8349 28.5773C12.4087 28.5773 12.9354 28.3318 13.1881 27.9016C13.2944 28.1854 13.5447 28.4985 14.0832 28.4985H14.6759V27.6651H14.5106C14.3075 27.6606 14.2154 27.5885 14.2154 27.2889Z" fill="white"></path>
<path d="M20.5895 25.0615H19.5527V28.4965H20.5895V25.0615Z" fill="white"></path>
<path d="M24.4605 25.0615L23.4922 27.4919L22.335 25.0615H21.1353L22.975 28.6542C22.8026 29.0619 22.6585 29.179 22.309 29.179H21.7729V30.0417H22.4011C23.1781 30.0417 23.5961 29.634 24.0236 28.6542L25.587 25.0615H24.4605Z" fill="white"></path>
<path d="M27.5872 27.7146C26.9991 27.7146 26.5575 27.3295 26.5575 26.7821C26.5575 26.2415 26.9991 25.8631 27.5872 25.8631C28.1941 25.8631 28.6357 26.2415 28.6357 26.7821C28.6357 27.3272 28.1941 27.7146 27.5872 27.7146ZM29.7032 27.2889V25.0612H28.6759L28.683 25.6041C28.461 25.2842 28.0666 24.9937 27.3699 24.9937C26.1702 24.9937 25.5561 25.8834 25.5561 26.7754C25.5349 27.6763 26.2292 28.5773 27.3179 28.5773C27.8965 28.5773 28.4208 28.3318 28.6759 27.9016C28.7798 28.1854 29.0325 28.4985 29.571 28.4985H30.1637V27.6651H29.9984C29.7906 27.6606 29.7032 27.5885 29.7032 27.2889Z" fill="white"></path>
</g>
</g>
<defs>
<clipPath id="clip0_4153_2382">
<rect y="0.00146484" width="36" height="36" rx="7.71429" fill="white"></rect>
</clipPath>
<clipPath id="clip1_4153_2382">
<rect width="24.377" height="5.04777" fill="white" transform="translate(5.78662 24.9937)"></rect>
</clipPath>
</defs>
</svg>