<svg data-v-5e0afdf2="" width="36" height="36" viewBox="0 0 36 36" fill="none" xmlns="http://www.w3.org/2000/svg" class="ui-icon ">
<path d="M13.2758 23.007L14.8961 13.8508H17.4869L15.8655 23.007H13.2758ZM25.262 14.0761C24.5156 13.8162 23.7301 13.6862 22.9397 13.6916C20.38 13.6916 18.5764 14.9334 18.5614 16.7129C18.5474 18.0288 19.8492 18.7629 20.8317 19.2015C21.8401 19.6501 22.1796 19.9365 22.1736 20.3371C22.1676 20.951 21.3694 21.2314 20.6244 21.2314C19.5869 21.2314 19.0361 21.0922 18.1859 20.7507L17.8514 20.6045L17.4879 22.6544C18.0937 22.9098 19.2123 23.1321 20.374 23.1431C23.0979 23.1431 24.8655 21.9154 24.8855 20.0147C24.8955 18.9732 24.2045 18.18 22.7104 17.5271C21.8051 17.1035 21.2503 16.8211 21.2563 16.3914C21.2563 16.0109 21.7259 15.6043 22.7394 15.6043C23.403 15.5896 24.0627 15.7088 24.6792 15.9548L24.9105 16.061L25.262 14.0761ZM31.9056 13.8598H29.9037C29.2828 13.8598 28.8191 14.022 28.5467 14.6189L24.6992 23.011H27.4201C27.4201 23.011 27.8648 21.8823 27.9659 21.634L31.2837 21.638C31.3608 21.9584 31.5991 23.01 31.5991 23.01H34.0026L31.9056 13.8598ZM28.711 19.7613C28.9253 19.2335 29.7425 17.2016 29.7425 17.2016C29.7284 17.2256 29.9558 16.6708 30.087 16.3274L30.2622 17.1175L30.8621 19.7613H28.711ZM11.1027 13.8578L8.56604 20.1008L8.29565 18.832C7.82397 17.3689 6.35286 15.7836 4.7085 14.9904L7.02783 22.9979L9.76877 22.9949L13.8476 13.8568H11.1037L11.1027 13.8578Z" fill="#15195A"></path>
<path d="M6.21398 13.8521H2.03598L2.00293 14.0423C5.2536 14.8004 7.40369 16.632 8.29697 18.8332L7.38767 14.6252C7.23144 14.0443 6.77679 13.8721 6.21398 13.8521Z" fill="#15195A"></path>
</svg>